<svg xmlns="http://www.w3.org/2000/svg" version="1.1" xmlns:xlink="http://www.w3.org/1999/xlink" xmlns:svgjs="http://svgjs.dev/svgjs" width="1000" height="1000" viewBox="0 0 1000 1000"><rect width="1000" height="1000" fill="#ffffff"></rect><g transform="matrix(0.7,0,0,0.7,149.57575757575756,282.1265587044535)"><svg viewBox="0 0 396 247" data-background-color="#ffffff" preserveAspectRatio="xMidYMid meet" height="623" width="1000" xmlns="http://www.w3.org/2000/svg" xmlns:xlink="http://www.w3.org/1999/xlink"><g id="tight-bounds" transform="matrix(1,0,0,1,0.2400000000000091,-0.09999999999999432)"><svg viewBox="0 0 395.52 247.2" height="247.2" width="395.52"><rect width="395.5199890136719" height="247.1999969482422" fill="url(#7cd4262a-8593-4dc4-9061-586b121d65d9)" mask="url(&quot;#0c7a746b-f1ad-49c4-9cea-4369c27281d4&quot;)" data-fill-palette-color="primary"></rect><g><svg></svg></g><g><svg viewBox="0 0 395.52 247.2" height="247.2" width="395.52"><g transform="matrix(1,0,0,1,0,56.23496971445054)"><svg viewBox="0 0 395.52 134.7300605710989" height="134.7300605710989" width="395.52"><g><svg viewBox="0 0 395.52 134.7300605710989" height="134.7300605710989" width="395.52"><g><svg viewBox="0 0 395.52 134.7300605710989" height="134.7300605710989" width="395.52"><g><svg viewBox="0 0 395.52 134.7300605710989" height="134.7300605710989" width="395.52"><g id="textblocktransform"><svg viewBox="0 0 395.52 134.7300605710989" height="134.7300605710989" width="395.52" id="textblock"><g><svg viewBox="0 0 395.52 134.7300605710989" height="134.7300605710989" width="395.52"><g transform="matrix(1,0,0,1,0,0)"><svg width="395.52" viewBox="-3.899999976158142 -44.849998474121094 174.33999633789062 60.04999923706055" height="134.7300605710989" data-palette-color="url(#7cd4262a-8593-4dc4-9061-586b121d65d9)"></svg></g></svg></g></svg></g></svg></g></svg></g></svg></g></svg></g><g mask="url(&quot;#ce4f4632-f241-4272-b40e-3516122a4a5a&quot;)"><g transform="matrix(2.7552935542436248, 0, 0, 2.7552935542436248, 81.93273278366668, 1)"><svg xmlns="http://www.w3.org/2000/svg" xmlns:xlink="http://www.w3.org/1999/xlink" version="1.1" x="0" y="0" viewBox="8.3388671875 5.307672500610352 84.076171875 88.9923324584961" style="enable-background:new 0 0 100 100;" xml:space="preserve" height="88.9923324584961" width="84.076171875" class="icon-none" data-fill-palette-color="accent" id="none"><path d="M39.5 94.3c-3.6 0-7.2-0.7-10.6-2.3-8.3-3.7-14-11.2-15.2-20.2L8.6 35C7.2 25 11.5 15.4 19.8 9.8c8.3-5.6 18.8-6 27.5-1l32.1 18.4c7.8 4.5 12.7 12.5 13 21.5s-3.9 17.4-11.3 22.5l-27 18.4C49.7 92.8 44.6 94.3 39.5 94.3zM34.3 14.3c-3.3 0-6.6 1-9.5 3-5.5 3.7-8.3 9.9-7.3 16.4l5.1 36.9c0.8 5.9 4.5 10.8 10 13.2 5.4 2.4 11.6 1.8 16.5-1.5l27-18.4c4.9-3.3 7.6-8.8 7.4-14.7C83.2 43.3 80 38 74.9 35.1L42.9 16.6C40.2 15.1 37.2 14.3 34.3 14.3z" fill="#cdd6f4" data-fill-palette-color="accent"></path></svg></g></g><mask id="ce4f4632-f241-4272-b40e-3516122a4a5a"><rect width="640" height="400" fill="white"></rect><g transform="matrix(1,0,0,1,0,56.23496971445054)"><svg viewBox="0 0 395.52 134.7300605710989" height="134.7300605710989" width="395.52"><g><svg viewBox="0 0 395.52 134.7300605710989" height="134.7300605710989" width="395.52"><g><svg viewBox="0 0 395.52 134.7300605710989" height="134.7300605710989" width="395.52"><g><svg viewBox="0 0 395.52 134.7300605710989" height="134.7300605710989" width="395.52"><g id="SvgjsG7946"><svg viewBox="0 0 395.52 134.7300605710989" height="134.7300605710989" width="395.52" id="SvgjsSvg7945"><g><svg viewBox="0 0 395.52 134.7300605710989" height="134.7300605710989" width="395.52"><g transform="matrix(1,0,0,1,0,0)"><svg width="395.52" viewBox="-3.899999976158142 -44.849998474121094 174.33999633789062 60.04999923706055" height="134.7300605710989" data-palette-color="url(#7cd4262a-8593-4dc4-9061-586b121d65d9)"><path d="M23.1-26.9L30.9-26.9 30.9 0 23.45 0 23.45-3.1Q20.55 0.4 15.05 0.4L15.05 0.4Q11.25 0.4 8.18-1.3 5.1-3 3.35-6.15 1.6-9.3 1.6-13.45L1.6-13.45Q1.6-17.6 3.35-20.75 5.1-23.9 8.18-25.6 11.25-27.3 15.05-27.3L15.05-27.3Q20.2-27.3 23.1-24.05L23.1-24.05 23.1-26.9ZM16.4-6Q19.35-6 21.3-8.03 23.25-10.05 23.25-13.45L23.25-13.45Q23.25-16.85 21.3-18.88 19.35-20.9 16.4-20.9L16.4-20.9Q13.4-20.9 11.45-18.88 9.5-16.85 9.5-13.45L9.5-13.45Q9.5-10.05 11.45-8.03 13.4-6 16.4-6L16.4-6ZM54-27.3Q57.75-27.3 60.82-25.58 63.9-23.85 65.65-20.73 67.4-17.6 67.4-13.45L67.4-13.45Q67.4-9.3 65.65-6.18 63.9-3.05 60.82-1.33 57.75 0.4 54 0.4L54 0.4Q48.85 0.4 45.9-2.85L45.9-2.85 45.9 9.7 38.1 9.7 38.1-26.9 45.55-26.9 45.55-23.8Q48.45-27.3 54-27.3L54-27.3ZM52.65-6Q55.65-6 57.57-8.03 59.5-10.05 59.5-13.45L59.5-13.45Q59.5-16.85 57.57-18.88 55.65-20.9 52.65-20.9L52.65-20.9Q49.65-20.9 47.72-18.88 45.8-16.85 45.8-13.45L45.8-13.45Q45.8-10.05 47.72-8.03 49.65-6 52.65-6L52.65-6ZM86.75-6.8L88.8-1.3Q87.65-0.45 85.97-0.03 84.3 0.4 82.5 0.4L82.5 0.4Q77.65 0.4 75.05-2.05 72.45-4.5 72.45-9.25L72.45-9.25 72.45-32.85 80.25-32.85 80.25-26.3 86.9-26.3 86.9-20.3 80.25-20.3 80.25-9.35Q80.25-7.65 81.09-6.73 81.95-5.8 83.55-5.8L83.55-5.8Q85.34-5.8 86.75-6.8L86.75-6.8ZM93.19 0L93.19-26.9 100.99-26.9 100.99 0 93.19 0ZM97.09-30.65Q94.94-30.65 93.59-31.9 92.24-33.15 92.24-35L92.24-35Q92.24-36.85 93.59-38.1 94.94-39.35 97.09-39.35L97.09-39.35Q99.24-39.35 100.59-38.15 101.94-36.95 101.94-35.15L101.94-35.15Q101.94-33.2 100.59-31.93 99.24-30.65 97.09-30.65L97.09-30.65ZM127.44-26.9L134.94-26.9 123.59 0 115.54 0 104.24-26.9 112.29-26.9 119.74-8.6 127.44-26.9ZM150.19 0.4Q145.94 0.4 142.56-1.38 139.19-3.15 137.29-6.3 135.39-9.45 135.39-13.45L135.39-13.45Q135.39-17.45 137.29-20.6 139.19-23.75 142.56-25.53 145.94-27.3 150.19-27.3L150.19-27.3Q154.44-27.3 157.79-25.53 161.14-23.75 163.04-20.6 164.94-17.45 164.94-13.45L164.94-13.45Q164.94-9.45 163.04-6.3 161.14-3.15 157.79-1.38 154.44 0.4 150.19 0.4L150.19 0.4ZM150.19-6Q153.19-6 155.11-8.03 157.04-10.05 157.04-13.45L157.04-13.45Q157.04-16.85 155.11-18.88 153.19-20.9 150.19-20.9L150.19-20.9Q147.19-20.9 145.24-18.88 143.29-16.85 143.29-13.45L143.29-13.45Q143.29-10.05 145.24-8.03 147.19-6 150.19-6L150.19-6Z" opacity="1" transform="matrix(1,0,0,1,0,0)" fill="black" class="undefined-text-0" data-fill-palette-color="primary" id="SvgjsPath7944" stroke-width="10" stroke="black" stroke-linejoin="round"></path></svg></g></svg></g></svg></g></svg></g></svg></g></svg></g></svg></g></mask></svg></g><defs></defs><mask id="0c7a746b-f1ad-49c4-9cea-4369c27281d4"><g id="SvgjsG7955"><svg viewBox="0 0 395.52 247.2" height="247.2" width="395.52"><g><svg></svg></g><g><svg viewBox="0 0 395.52 247.2" height="247.2" width="395.52"><g transform="matrix(1,0,0,1,0,56.23496971445054)"><svg viewBox="0 0 395.52 134.7300605710989" height="134.7300605710989" width="395.52"><g><svg viewBox="0 0 395.52 134.7300605710989" height="134.7300605710989" width="395.52"><g><svg viewBox="0 0 395.52 134.7300605710989" height="134.7300605710989" width="395.52"><g><svg viewBox="0 0 395.52 134.7300605710989" height="134.7300605710989" width="395.52"><g id="SvgjsG7954"><svg viewBox="0 0 395.52 134.7300605710989" height="134.7300605710989" width="395.52" id="SvgjsSvg7953"><g><svg viewBox="0 0 395.52 134.7300605710989" height="134.7300605710989" width="395.52"><g transform="matrix(1,0,0,1,0,0)"><svg width="395.52" viewBox="-3.899999976158142 -44.849998474121094 174.33999633789062 60.04999923706055" height="134.7300605710989" data-palette-color="url(#7cd4262a-8593-4dc4-9061-586b121d65d9)"><path d="M23.1-26.9L30.9-26.9 30.9 0 23.45 0 23.45-3.1Q20.55 0.4 15.05 0.4L15.05 0.4Q11.25 0.4 8.18-1.3 5.1-3 3.35-6.15 1.6-9.3 1.6-13.45L1.6-13.45Q1.6-17.6 3.35-20.75 5.1-23.9 8.18-25.6 11.25-27.3 15.05-27.3L15.05-27.3Q20.2-27.3 23.1-24.05L23.1-24.05 23.1-26.9ZM16.4-6Q19.35-6 21.3-8.03 23.25-10.05 23.25-13.45L23.25-13.45Q23.25-16.85 21.3-18.88 19.35-20.9 16.4-20.9L16.4-20.9Q13.4-20.9 11.45-18.88 9.5-16.85 9.5-13.45L9.5-13.45Q9.5-10.05 11.45-8.03 13.4-6 16.4-6L16.4-6ZM54-27.3Q57.75-27.3 60.82-25.58 63.9-23.85 65.65-20.73 67.4-17.6 67.4-13.45L67.4-13.45Q67.4-9.3 65.65-6.18 63.9-3.05 60.82-1.33 57.75 0.4 54 0.4L54 0.4Q48.85 0.4 45.9-2.85L45.9-2.85 45.9 9.7 38.1 9.7 38.1-26.9 45.55-26.9 45.55-23.8Q48.45-27.3 54-27.3L54-27.3ZM52.65-6Q55.65-6 57.57-8.03 59.5-10.05 59.5-13.45L59.5-13.45Q59.5-16.85 57.57-18.88 55.65-20.9 52.65-20.9L52.65-20.9Q49.65-20.9 47.72-18.88 45.8-16.85 45.8-13.45L45.8-13.45Q45.8-10.05 47.72-8.03 49.65-6 52.65-6L52.65-6ZM86.75-6.8L88.8-1.3Q87.65-0.45 85.97-0.03 84.3 0.4 82.5 0.4L82.5 0.4Q77.65 0.4 75.05-2.05 72.45-4.5 72.45-9.25L72.45-9.25 72.45-32.85 80.25-32.85 80.25-26.3 86.9-26.3 86.9-20.3 80.25-20.3 80.25-9.35Q80.25-7.65 81.09-6.73 81.95-5.8 83.55-5.8L83.55-5.8Q85.34-5.8 86.75-6.8L86.75-6.8ZM93.19 0L93.19-26.9 100.99-26.9 100.99 0 93.19 0ZM97.09-30.65Q94.94-30.65 93.59-31.9 92.24-33.15 92.24-35L92.24-35Q92.24-36.85 93.59-38.1 94.94-39.35 97.09-39.35L97.09-39.35Q99.24-39.35 100.59-38.15 101.94-36.95 101.94-35.15L101.94-35.15Q101.94-33.2 100.59-31.93 99.24-30.65 97.09-30.65L97.09-30.65ZM127.44-26.9L134.94-26.9 123.59 0 115.54 0 104.24-26.9 112.29-26.9 119.74-8.6 127.44-26.9ZM150.19 0.4Q145.94 0.4 142.56-1.38 139.19-3.15 137.29-6.3 135.39-9.45 135.39-13.45L135.39-13.45Q135.39-17.45 137.29-20.6 139.19-23.75 142.56-25.53 145.94-27.3 150.19-27.3L150.19-27.3Q154.44-27.3 157.79-25.53 161.14-23.75 163.04-20.6 164.94-17.45 164.94-13.45L164.94-13.45Q164.94-9.45 163.04-6.3 161.14-3.15 157.79-1.38 154.44 0.4 150.19 0.4L150.19 0.4ZM150.19-6Q153.19-6 155.11-8.03 157.04-10.05 157.04-13.45L157.04-13.45Q157.04-16.85 155.11-18.88 153.19-20.9 150.19-20.9L150.19-20.9Q147.19-20.9 145.24-18.88 143.29-16.85 143.29-13.45L143.29-13.45Q143.29-10.05 145.24-8.03 147.19-6 150.19-6L150.19-6Z" opacity="1" transform="matrix(1,0,0,1,0,0)" fill="white" class="undefined-text-0" id="SvgjsPath7952"></path></svg></g></svg></g></svg></g></svg></g></svg></g></svg></g></svg></g><g mask="url(&quot;#ce4f4632-f241-4272-b40e-3516122a4a5a&quot;)"><g transform="matrix(2.7552935542436248, 0, 0, 2.7552935542436248, 81.93273278366668, 1)"><svg xmlns="http://www.w3.org/2000/svg" xmlns:xlink="http://www.w3.org/1999/xlink" version="1.1" x="0" y="0" viewBox="8.3388671875 5.307672500610352 84.076171875 88.9923324584961" style="enable-background:new 0 0 100 100;" xml:space="preserve" height="88.9923324584961" width="84.076171875" class="icon-none" data-fill-palette-color="accent" id="SvgjsSvg7951"></svg></g></g><mask id="SvgjsMask7950"><g transform="matrix(1,0,0,1,0,56.23496971445054)"><svg viewBox="0 0 395.52 134.7300605710989" height="134.7300605710989" width="395.52"><g><svg viewBox="0 0 395.52 134.7300605710989" height="134.7300605710989" width="395.52"><g><svg viewBox="0 0 395.52 134.7300605710989" height="134.7300605710989" width="395.52"><g><svg viewBox="0 0 395.52 134.7300605710989" height="134.7300605710989" width="395.52"><g id="SvgjsG7949"><svg viewBox="0 0 395.52 134.7300605710989" height="134.7300605710989" width="395.52" id="SvgjsSvg7948"><g><svg viewBox="0 0 395.52 134.7300605710989" height="134.7300605710989" width="395.52"><g transform="matrix(1,0,0,1,0,0)"><svg width="395.52" viewBox="-3.899999976158142 -44.849998474121094 174.33999633789062 60.04999923706055" height="134.7300605710989" data-palette-color="url(#7cd4262a-8593-4dc4-9061-586b121d65d9)"><path d="M23.1-26.9L30.9-26.9 30.9 0 23.45 0 23.45-3.1Q20.55 0.4 15.05 0.4L15.05 0.4Q11.25 0.4 8.18-1.3 5.1-3 3.35-6.15 1.6-9.3 1.6-13.45L1.6-13.45Q1.6-17.6 3.35-20.75 5.1-23.9 8.18-25.6 11.25-27.3 15.05-27.3L15.05-27.3Q20.2-27.3 23.1-24.05L23.1-24.05 23.1-26.9ZM16.4-6Q19.35-6 21.3-8.03 23.25-10.05 23.25-13.45L23.25-13.45Q23.25-16.85 21.3-18.88 19.35-20.9 16.4-20.9L16.4-20.9Q13.4-20.9 11.45-18.88 9.5-16.85 9.5-13.45L9.5-13.45Q9.5-10.05 11.45-8.03 13.4-6 16.4-6L16.4-6ZM54-27.3Q57.75-27.3 60.82-25.58 63.9-23.85 65.65-20.73 67.4-17.6 67.4-13.45L67.4-13.45Q67.4-9.3 65.65-6.18 63.9-3.05 60.82-1.33 57.75 0.4 54 0.4L54 0.4Q48.85 0.4 45.9-2.85L45.9-2.85 45.9 9.7 38.1 9.7 38.1-26.9 45.55-26.9 45.55-23.8Q48.45-27.3 54-27.3L54-27.3ZM52.65-6Q55.65-6 57.57-8.03 59.5-10.05 59.5-13.45L59.5-13.45Q59.5-16.85 57.57-18.88 55.65-20.9 52.65-20.9L52.65-20.9Q49.65-20.9 47.72-18.88 45.8-16.85 45.8-13.45L45.8-13.45Q45.8-10.05 47.72-8.03 49.65-6 52.65-6L52.65-6ZM86.75-6.8L88.8-1.3Q87.65-0.45 85.97-0.03 84.3 0.4 82.5 0.4L82.5 0.4Q77.65 0.4 75.05-2.05 72.45-4.5 72.45-9.25L72.45-9.25 72.45-32.85 80.25-32.85 80.25-26.3 86.9-26.3 86.9-20.3 80.25-20.3 80.25-9.35Q80.25-7.65 81.09-6.73 81.95-5.8 83.55-5.8L83.55-5.8Q85.34-5.8 86.75-6.8L86.75-6.8ZM93.19 0L93.19-26.9 100.99-26.9 100.99 0 93.19 0ZM97.09-30.65Q94.94-30.65 93.59-31.9 92.24-33.15 92.24-35L92.24-35Q92.24-36.85 93.59-38.1 94.94-39.35 97.09-39.35L97.09-39.35Q99.24-39.35 100.59-38.15 101.94-36.95 101.94-35.15L101.94-35.15Q101.94-33.2 100.59-31.93 99.24-30.65 97.09-30.65L97.09-30.65ZM127.44-26.9L134.94-26.9 123.59 0 115.54 0 104.24-26.9 112.29-26.9 119.74-8.6 127.44-26.9ZM150.19 0.4Q145.94 0.4 142.56-1.38 139.19-3.15 137.29-6.3 135.39-9.45 135.39-13.45L135.39-13.45Q135.39-17.45 137.29-20.6 139.19-23.75 142.56-25.53 145.94-27.3 150.19-27.3L150.19-27.3Q154.44-27.3 157.79-25.53 161.14-23.75 163.04-20.6 164.94-17.45 164.94-13.45L164.94-13.45Q164.94-9.45 163.04-6.3 161.14-3.15 157.79-1.38 154.44 0.4 150.19 0.4L150.19 0.4ZM150.19-6Q153.19-6 155.11-8.03 157.04-10.05 157.04-13.45L157.04-13.45Q157.04-16.85 155.11-18.88 153.19-20.9 150.19-20.9L150.19-20.9Q147.19-20.9 145.24-18.88 143.29-16.85 143.29-13.45L143.29-13.45Q143.29-10.05 145.24-8.03 147.19-6 150.19-6L150.19-6Z" opacity="1" transform="matrix(1,0,0,1,0,0)" fill="white" class="undefined-text-0" id="SvgjsPath7947" stroke-width="10" stroke="black" stroke-linejoin="round"></path></svg></g></svg></g></svg></g></svg></g></svg></g></svg></g></svg></g></mask></svg></g><defs></defs></svg></g></mask><linearGradient x1="0" x2="1" y1="0.578" y2="0.595" id="7cd4262a-8593-4dc4-9061-586b121d65d9"><stop stop-color="#6ee2f5" offset="0"></stop><stop stop-color="#6454f0" offset="1"></stop></linearGradient></svg><rect width="395.52" height="247.2" fill="none" stroke="none" visibility="hidden"></rect></g></svg></g></svg>