<svg id="Layer_1" data-name="Layer 1" xmlns="http://www.w3.org/2000/svg" viewBox="0 0 800 400"><defs><style>.cls-1{fill:#f7901e;}</style></defs><title>flerson</title><path class="cls-1" d="M82.49,98.27,348.8,82.71A16.62,16.62,0,0,1,364.53,107L260,308.6a16.63,16.63,0,0,1-21,7.77L52.14,241.28a16.61,16.61,0,0,1-10-19.1l25.11-111A16.62,16.62,0,0,1,82.49,98.27Z"/><path d="M153.5,166.45H132.27V273.74h-28.5V166.45H88.94V140.86h14.83v-16q0-18.33,15.91-31.7Q135,80.68,153.5,80.67v28.49q-21.24-.57-21.23,31.7H153.5Z"/><path d="M201.76,85V273.74H171.52v-189Z"/><path d="M313.12,232.74a43.67,43.67,0,0,1-43.61,43.62H262a43.65,43.65,0,0,1-43.62-43.53V180A43.63,43.63,0,0,1,262,136.5h7.56a43.67,43.67,0,0,1,43.61,43.61v40.13H247.41v4.89q0,13.55,6.06,19t19.9,5.47q7.78,0,10.68-16.87Zm-29.07-36.63v-9.23q0-24.21-18.9-24.21-17.74,0-17.74,24.42v9Z"/><path d="M410.54,150.48l-24.09,18.87q-4.41-9-16.45-9-17.34,0-17.33,16.45l.87,97H323V134.17l29.66.29v7.27q6.69-7.56,25-7.56Q398.61,134.17,410.54,150.48Z"/><path d="M508.23,233.91a43.67,43.67,0,0,1-43.61,43.61h-7.56a42.16,42.16,0,0,1-28.79-10.76,43,43,0,0,1-14.54-27h30.53q4.07,11.64,17.16,11.63a18.13,18.13,0,0,0,12.36-4.75,14.72,14.72,0,0,0,5.38-11.38q0-15.56-21.81-15.56-18.62,0-31.12-10.47-13.37-11-13.37-29.08a43.67,43.67,0,0,1,43.61-43.61H464a43.56,43.56,0,0,1,43.33,38.09H476.83q-3.78-11.93-17.16-11.92a18.67,18.67,0,0,0-12.5,4.46,14.61,14.61,0,0,0-5.23,11.67q0,15.57,21.8,15.56,18.61,0,31.12,10.18Q508.23,215.6,508.23,233.91Z"/><path d="M611.75,232.83a43.65,43.65,0,0,1-43.62,43.53h-7.56A43.65,43.65,0,0,1,517,232.83V180a43.63,43.63,0,0,1,43.62-43.52h7.56A43.63,43.63,0,0,1,611.75,180Zm-29.08-7.77V186.93q0-24.27-18.9-24.26-17.74,0-17.74,24.26v38.13q0,24.25,18.9,24.26Q582.66,249.32,582.67,225.06Z"/><path d="M721.65,177.6v96.14H693.16V184.58q0-24.24-19.36-24.24-17.56,0-17.57,16.45l.87,97H626.57V134.17l29.66.29v7.27q6.64-7.56,24.9-7.56,17.94,0,29.23,12.6T721.65,177.6Z"/></svg>