<?xml version="1.0" encoding="utf-8"?>
<!-- Generator: Adobe Illustrator 26.2.1, SVG Export Plug-In . SVG Version: 6.00 Build 0)  -->
<!DOCTYPE svg PUBLIC "-//W3C//DTD SVG 1.1//EN" "http://www.w3.org/Graphics/SVG/1.1/DTD/svg11.dtd" [
	<!ENTITY ns_extend "http://ns.adobe.com/Extensibility/1.0/">
	<!ENTITY ns_ai "http://ns.adobe.com/AdobeIllustrator/10.0/">
	<!ENTITY ns_graphs "http://ns.adobe.com/Graphs/1.0/">
	<!ENTITY ns_vars "http://ns.adobe.com/Variables/1.0/">
	<!ENTITY ns_imrep "http://ns.adobe.com/ImageReplacement/1.0/">
	<!ENTITY ns_sfw "http://ns.adobe.com/SaveForWeb/1.0/">
	<!ENTITY ns_custom "http://ns.adobe.com/GenericCustomNamespace/1.0/">
	<!ENTITY ns_adobe_xpath "http://ns.adobe.com/XPath/1.0/">
]>
<svg version="1.1" id="Layer_1" xmlns:x="&ns_extend;" xmlns:i="&ns_ai;" xmlns:graph="&ns_graphs;"
	 xmlns="http://www.w3.org/2000/svg" xmlns:xlink="http://www.w3.org/1999/xlink" x="0px" y="0px" viewBox="0 0 376 56"
	 style="enable-background:new 0 0 376 56;" xml:space="preserve">
<style type="text/css">
	.st0{clip-path:url(#SVGID_00000154408881416496947490000002503621727715935630_);}
	.st1{clip-path:url(#SVGID_00000157288472492014048610000012371090410307637161_);}
	.st2{fill:#EA0029;}
	.st3{clip-path:url(#SVGID_00000100353688837598439990000003430929726345311375_);}
	.st4{clip-path:url(#SVGID_00000143592381567135488150000001875033564245899448_);}
	.st5{fill:#0072CE;}
	.st6{clip-path:url(#SVGID_00000098192226911387135730000005186574868253687731_);}
	.st7{clip-path:url(#SVGID_00000080190898342827116490000008390663702053663875_);}
	.st8{clip-path:url(#SVGID_00000111173448903651124810000008852964312376263556_);}
</style>
<metadata>
	<sfw  xmlns="&ns_sfw;">
		<slices></slices>
		<sliceSourceBounds  bottomLeftOrigin="true" height="2492.25" width="1024.5" x="-32.12273" y="-746.5"></sliceSourceBounds>
	</sfw>
</metadata>
<g>
	<g>
		<defs>
			<polygon id="SVGID_1_" points="217.69476,39.25 369.87726,39.28 369.87726,39.325 213.87727,44.5 			"/>
		</defs>
		<clipPath id="SVGID_00000131338859162331916150000013796298297300908201_">
			<use xlink:href="#SVGID_1_"  style="overflow:visible;"/>
		</clipPath>
		<g style="clip-path:url(#SVGID_00000131338859162331916150000013796298297300908201_);">
			<g>
				<defs>
					
						<rect id="SVGID_00000120553333397187186260000005960339030359016094_" x="-32.12273" y="-1745.75" width="1024.5" height="2492.25"/>
				</defs>
				<clipPath id="SVGID_00000009584284070210548270000001666402681686321056_">
					<use xlink:href="#SVGID_00000120553333397187186260000005960339030359016094_"  style="overflow:visible;"/>
				</clipPath>
				<g style="clip-path:url(#SVGID_00000009584284070210548270000001666402681686321056_);">
					<rect x="213.12727" y="38.5" class="st2" width="157.5" height="6.75"/>
				</g>
			</g>
		</g>
	</g>
	<g>
		<defs>
			<path id="SVGID_00000114757252410274851410000003377710802985023112_" d="M357.40475,29.9125
				c-0.32248-0.66-0.04498-1.3275,0.44254-2.655l0.98248-2.7675c0.63748-1.725,1.125-2.6625,3-2.6625
				c0.54865-0.05155,1.08133,0.20185,1.38748,0.66c0.2775,0.495,0.11252,1.185-0.42749,2.6775l-1.13251,3.105
				c-0.70502,1.9125-1.38748,2.3775-2.78253,2.385c-0.60611,0.07896-1.19952-0.21774-1.5-0.75L357.40475,29.9125z M357.16476,34.75
				c7.85248,0,11.39249-1.6275,13.34998-7.185s0.9675-9.4125-7.215-9.4125c-7.845,0-11.38498,1.6275-13.34998,7.185
				s-0.97501,9.4125,7.17749,9.4125H357.16476z M260.88727,29.5525c-2.25,0-3-0.6525-1.9725-3.4125l2.1525-5.9025
				c0.6525-1.8,1.5675-1.98,3.33749-1.98h6.75l1.65002-4.5h-9.57751c-6.71252,0-9.75,0.465-11.625,5.85L249.12727,26.5
				c-1.5,4.155-2.34,8.0025,4.37248,8.0025h12.78751l1.8075-4.9275L260.88727,29.5525z M322.94977,13l-7.76999,21.4875h8.46002
				L331.23724,13H322.94977z M309.44977,24.4825c0.52499-1.38,0.5625-2.6475-1.4325-2.6475c-1.99496,0-2.65497,0.675-3.42749,2.6475
				H309.44977z M316.00476,28.9825c-0.72314,2.01281-2.24176,3.63993-4.19998,4.5c-1.92752,0.9825-4.79251,1.2675-8.9025,1.2675
				c-8.19,0-9.17999-3.8025-7.20749-9.39s5.51248-7.185,13.35748-7.185c8.61749,0,9.66751,3.255,7.5975,9.105h-13.05002
				c-0.40497,1.08-0.82498,2.0925-0.48001,2.8125s0.9375,0.81,1.79251,0.81c1.28458,0.11944,2.47821-0.67423,2.86502-1.905
				L316.00476,28.9825z M286.82227,20.4175l-2.60999,7.3125c-0.59998,1.5825-1.01248,2.1825-2.73752,2.1825h-2.09247
				l4.19247-11.6625h1.55249C286.82227,18.2875,287.43729,18.835,286.82227,20.4175z M290.1673,13.9075h-14.44501L268.30478,34.48
				h15.61499c6.5625,0,7.89001-1.5,9.75-6.705l2.25-6.2175c1.67999-4.6875,0.80997-7.65-5.75253-7.65H290.1673z M339.87726,28.405
				c-0.68997,1.7925-1.5,2.2875-2.8725,2.25c-0.75,0-1.2525-0.2175-1.5-0.75c-0.285-0.675-0.03751-1.32,0.44998-2.655l0.9975-2.76
				c0.66-1.77,1.16251-2.655,2.94751-2.655c0.56656-0.06516,1.12457,0.1781,1.46249,0.6375
				c0.24753,0.4425,0.15002,1.0425-0.26999,2.25h8.25c0.62253-4.005-1.26749-6.57-7.9725-6.57
				c-7.85248,0-11.39249,1.635-13.34998,7.185s-0.89252,9.4125,7.27499,9.4125c7.4325,0,11.03998-1.125,13.08752-6.345H339.87726z
				 M220.62727,34.4875h9.8775l1.86002-3.225h5.30998l-0.6075,3.225h9.75l1.29001-20.58h-13.05L220.62727,34.4875z
				 M240.20227,17.695h0.07501l-1.84502,9.555h-3.75L240.20227,17.695z"/>
		</defs>
		<clipPath id="SVGID_00000128457444835668891680000006924984183559391637_">
			<use xlink:href="#SVGID_00000114757252410274851410000003377710802985023112_"  style="overflow:visible;"/>
		</clipPath>
		<g style="clip-path:url(#SVGID_00000128457444835668891680000006924984183559391637_);">
			<g>
				<defs>
					
						<rect id="SVGID_00000080911647823286029800000010029114196032108689_" x="-32.12273" y="-1745.75" width="1024.5" height="2492.25"/>
				</defs>
				<clipPath id="SVGID_00000142867256803827545700000005481282578446474431_">
					<use xlink:href="#SVGID_00000080911647823286029800000010029114196032108689_"  style="overflow:visible;"/>
				</clipPath>
				<g style="clip-path:url(#SVGID_00000142867256803827545700000005481282578446474431_);">
					<rect x="219.87727" y="12.25" class="st5" width="152.25" height="23.25"/>
				</g>
			</g>
		</g>
	</g>
	<g>
		<defs>
			<rect id="SVGID_00000062907602266274238660000000453283359745412239_" x="197.37727" y="10" width="1.5" height="35.25"/>
		</defs>
		<clipPath id="SVGID_00000135672172116061609760000003506393353136231044_">
			<use xlink:href="#SVGID_00000062907602266274238660000000453283359745412239_"  style="overflow:visible;"/>
		</clipPath>
		<g style="clip-path:url(#SVGID_00000135672172116061609760000003506393353136231044_);">
			<rect x="196.62727" y="9.25" class="st5" width="3" height="36.75"/>
		</g>
	</g>
	<g>
		<defs>
			<path id="SVGID_00000123419089626297089250000012008831686847365288_" d="M29.32477,41.005h19.3875v-3.45h-19.3875V41.005z
				 M22.38727,18.3925h-2.25c-0.41935-0.0188-0.82738,0.13898-1.125,0.435c-0.29602,0.29762-0.4538,0.70565-0.435,1.125V28.69
				c-0.02158,0.43303,0.14525,0.85421,0.4575,1.155c0.3052,0.30879,0.72922,0.47019,1.1625,0.4425h2.175L22.38727,18.3925z
				 M26.33226,14.98v19.5c0,2.2875-1.0275,6.54-7.725,6.54h-1.665v-3.45h1.665c2.6325-0.0525,3.75-1.1625,3.75-3.0675v-0.75
				h-3.25499c-1.20471,0.06324-2.37877-0.39273-3.225-1.2525c-0.84533-0.83829-1.29047-1.99892-1.2225-3.1875V19.39
				c-0.07213-1.19143,0.37348-2.35603,1.2225-3.195c0.84689-0.84085,2.011-1.28251,3.2025-1.215H26.33226z M48.71226,19.39v14.3175
				h-3.945v-13.755c0.03172-0.42067-0.12166-0.83424-0.42-1.1325c-0.2994-0.298-0.71059-0.45593-1.1325-0.435h-2.25v15.3225h-3.945
				v-15.315h-3.75v15.315h-3.94499v-18.75h15c2.715,0.0225,4.38749,1.725,4.38749,4.4325H48.71226z M50.65475,51.5725H12.71977
				c-3.0675,0-4.6425-1.575-4.6425-4.635v-37.89c0-3.0525,1.575-4.635,4.6425-4.635h37.935c3.06,0,4.63499,1.575,4.63499,4.635
				V46.96c0.00751,3.03-1.56749,4.6125-4.63499,4.6125H50.65475z M58.73226,8.7025C58.73227,4,55.70227,1,51.01477,1H12.33727
				c-4.6725,0-7.71,3-7.71,7.7025v38.595c0,4.7025,3,7.7025,7.71,7.7025h38.67751c4.68,0,7.71749-3,7.71749-7.7025L58.73226,8.7025z
				 M130.33476,25.75c2.535,0,6.20248-1.0575,6.20248-6.12v-9.4725h-2.955v9.435c0,2.07-0.75,3.285-3.2175,3.285
				c-2.46751,0-3.24749-1.2375-3.24749-3.285v-9.435h-2.955v9.435c0,5.0625,3.6375,6.12,6.17251,6.12V25.75z M141.04475,46.135
				c-2.69678,0.07557-5.12109-1.63428-5.955-4.2l2.6925-1.005c0.53926,1.39231,1.85313,2.33204,3.34502,2.3925
				c2.60249,0,2.47499-1.8075,2.47499-1.86c0-0.9675-0.59251-1.5-3.10501-2.3175c-0.61501-0.2025-1.08-0.3675-1.39499-0.48
				c-2.31-0.855-3.42-2.25-3.42-4.1475c0-2.175,1.72499-4.215,5.1825-4.215c4.24501,0,5.07001,3.45,5.07001,3.54l-2.64749,0.9075
				c-0.43254-1.05003-1.49284-1.70136-2.625-1.6125c-0.045,0-2.04001-0.09-2.04001,1.5c0,1.035,1.785,1.545,2.7825,1.875
				l1.18498,0.4125c3.9375,1.455,3.9375,3.615,3.9375,4.6125c0.045,3.2475-2.745,4.635-5.49001,4.635L141.04475,46.135z
				 M127.32726,33.385v12.45h-2.94749V33.3775h-4.38V30.565h11.7v2.8125L127.32726,33.385z M106.57475,37.3225h4.1925
				c1.10387,0.06765,2.0536-0.77238,2.12123-1.87627c0.06766-1.10388-0.77238-2.05359-1.87626-2.12123
				c-0.08157-0.005-0.1634-0.005-0.24497,0h-4.1925V37.3225z M103.62727,45.835v-15.3h7.09499c3.75,0,5.12249,2.1525,5.12249,4.7925
				c0.02625,1.95442-1.17254,3.71661-3,4.41l3,6.0975h-3.32249l-2.89499-5.7075h-3.08249v5.7075H103.62727z M94.31977,40
				l-1.5-3.9825c-0.18677-0.44769-0.34705-0.90599-0.48001-1.3725c-0.13499,0.465-0.29251,0.9225-0.4725,1.3725l-1.5,3.9825
				H94.31977z M96.46476,45.85l-1.18499-3.165h-5.9025l-1.18499,3.165h-3.165l5.84999-15.315h2.8875l5.86501,15.3L96.46476,45.85z
				 M78.56977,37.3975c1.12253,0.00092,2.03325-0.90831,2.03416-2.03083c0.00094-1.12252-0.90829-2.03325-2.03082-2.03417
				c-0.00112,0-0.00222,0-0.00334,0h-3.75v4.065H78.56977z M71.87228,45.835v-15.3h6.57001c4.13251,0,5.25,2.775,5.25,4.83
				c0,1.77-1.08751,4.83-5.25,4.83h-3.61501v5.64H71.87228z M171.45728,25.45V10.1575h10.5V13h-7.5v3.2175h4.41751V19h-4.41751
				v3.6525h7.92v2.8125L171.45728,25.45z M164.89478,25.45h-2.625l-6.08249-8.91c-0.24077-0.37002-0.45145-0.75877-0.63-1.1625
				c0.04242,0.38602,0.06247,0.77417,0.06,1.1625v8.91h-2.925V10.1575h2.75999l5.925,8.8425
				c0.24748,0.405,0.45749,0.795,0.6375,1.125c-0.04514-0.3733-0.06767-0.74898-0.06749-1.125v-8.8425h2.92499L164.89478,25.45z
				 M143.06229,25.45V10.1575h2.955V25.45H143.06229z M117.7123,25.45h-2.625l-6.09-8.91
				c-0.24076-0.37002-0.45145-0.75877-0.63-1.1625c0.04241,0.38602,0.06246,0.77417,0.05999,1.1625v8.91h-2.925V10.1575h2.77501
				L114.20228,19c0.255,0.405,0.465,0.795,0.6375,1.125c-0.04514-0.3733-0.06768-0.74898-0.0675-1.125v-8.8425h2.9325
				L117.7123,25.45z M89.44479,25.45V10.1575h10.5V13h-7.56752v3.2175h4.41751V19h-4.41751v3.6525h7.965v2.8125L89.44479,25.45z
				 M77.84978,25.75c-4.6875,0-6.75-3.8625-6.75-7.8825c0-3.51,2.00251-7.905,6.75-7.905c1.53749,0,3.61501,0.27,5.49001,3.2775
				l-2.6025,1.5c-0.84499-1.285-1.8075-1.925-2.8875-1.92c-3.54751,0-3.675,4.3425-3.675,5.0625c0,0.99,0.21751,5.0625,3.675,5.0625
				c1.41971,0.05454,2.61481-1.05214,2.66936-2.47184c0.00023-0.00605,0.00046-0.0121,0.00064-0.01816v-0.1725h-2.6025v-2.865
				h5.63251v2.25C83.53477,23.83,80.83476,25.75,77.84978,25.75z"/>
		</defs>
		<clipPath id="SVGID_00000113337669486023464680000017749830964580638614_">
			<use xlink:href="#SVGID_00000123419089626297089250000012008831686847365288_"  style="overflow:visible;"/>
		</clipPath>
		<g style="clip-path:url(#SVGID_00000113337669486023464680000017749830964580638614_);">
			<g>
				<defs>
					
						<rect id="SVGID_00000154417700149695292730000017688049307426929834_" x="-32.12273" y="-1745.75" width="1024.5" height="2492.25"/>
				</defs>
				<clipPath id="SVGID_00000096751910361836039900000007351326709197850772_">
					<use xlink:href="#SVGID_00000154417700149695292730000017688049307426929834_"  style="overflow:visible;"/>
				</clipPath>
				<g style="clip-path:url(#SVGID_00000096751910361836039900000007351326709197850772_);">
					<rect x="3.87727" y="0.25" class="st5" width="179.25" height="55.5"/>
				</g>
			</g>
		</g>
	</g>
</g>
</svg>
