<?xml version="1.0" encoding="UTF-8"?>
<svg xmlns="http://www.w3.org/2000/svg" viewBox="0 0 597.52 1758.88">
  <defs>
    <style>
      .cls-1 {
        fill: #2d170c;
      }

      .cls-2 {
        fill: #262626;
      }

      .cls-3 {
        fill: #fff;
      }

      .cls-4 {
        isolation: isolate;
      }

      .cls-5 {
        fill: #1c1c1c;
      }

      .cls-6 {
        fill: #f8a284;
      }

      .cls-7 {
        fill: #e6e6e6;
      }

      .cls-8 {
        fill: #767676;
      }

      .cls-9 {
        fill: #424242;
      }

      .cls-10 {
        fill: #2b2b2b;
      }

      .cls-11 {
        fill: #c8cbcc;
      }

      .cls-12 {
        fill: #ab5741;
      }

      .cls-13 {
        fill: #1a1a1a;
      }

      .cls-14 {
        fill: #f9f5f3;
      }

      .cls-15 {
        fill: #ccc;
        mix-blend-mode: multiply;
      }
    </style>
  </defs>
  <g class="cls-4">
    <g id="Layer_2" data-name="Layer 2">
      <g id="creation_people_character" data-name="creation people character">
        <g id="man_in_suit" data-name="man in suit">
          <g>
            <rect class="cls-11" x="52.37" y="1716.47" width="545.15" height="31.46" rx="15.73" ry="15.73"/>
            <path class="cls-11" d="m207.31,1731.19H7.36c-4.05,0-7.36-3.31-7.36-7.36h0c0-4.05,3.31-7.36,7.36-7.36h199.96c4.05,0,7.36,3.31,7.36,7.36h0c0,4.05-3.31,7.36-7.36,7.36Z"/>
            <path class="cls-11" d="m407.1,1758.88h120.6c4.47,0,8.13-3.66,8.13-8.13h0c0-4.47-3.66-8.13-8.13-8.13h-120.6c-4.47,0-8.13,3.66-8.13,8.13h0c0,4.47,3.66,8.13,8.13,8.13Z"/>
          </g>
          <g>
            <g>
              <g>
                <path class="cls-8" d="m258.34,1674.28v-77.43h-56.67l-33.25,81.03s87.74,29.78,89.92-3.6Z"/>
                <path class="cls-13" d="m253.02,1665.55s-28-57.69-84.6-14.88l-13.7,31.06s-34.49,15.37-34.49,58.83h144.46v-79.65c0-22.85-6.94-30.42-8.99-24.77l-2.68,29.41Z"/>
              </g>
              <g>
                <path class="cls-8" d="m390.71,1674.28v-77.43h56.67l33.25,81.03s-87.74,29.78-89.92-3.6Z"/>
                <path class="cls-13" d="m396.03,1665.55s28-57.69,84.6-14.88l13.7,31.06s34.49,15.37,34.49,58.83h-144.46v-79.65c0-22.85,6.94-30.42,8.99-24.77l2.68,29.41Z"/>
              </g>
              <path class="cls-2" d="m145.3,886.39c6,149.34,15.8,372.95,25.08,412.05,13.88,58.53,95.99,20.54,95.16-19.32-.3-14.32-5.23-28.58-6.49-42.93-1.11-12.68,39.72-292.39,39.72-292.39l-1.6-53.37-151.86-4.05Z"/>
              <path class="cls-2" d="m189.88,1612.05c-5.86-56.75-6.57-86.16-10.52-142.91-1.98-28.51-3.97-57.03-5.95-85.54-2.8-40.17-13.21-98.23-2.23-136.13,3.28-11.31,78.4-23.14,87.86-11.28,0,0,22.29,71.16,22.6,97.12.35,28.74-19.46,278.74-19.46,278.74h-72.31Z"/>
              <path class="cls-2" d="m453.45,885.35c4.42,149.34,9.9,368.06,3.36,407.15-9.79,58.53-94.55,20.54-96.5-19.32-.7-14.32,3.23-28.58,3.49-42.93.23-12.68-58.89-292.39-58.89-292.39l.73-52.52h147.81Z"/>
              <path class="cls-2" d="m459.62,1612.05c1.9-56.75.13-92.09.12-148.85,0-28.51-.01-57.03-.02-85.54,0-40.17,6.35-98.23-7.28-136.13-4.07-11.31-80.01-23.13-88.65-11.28,0,0-6.6,55.9-10.58,81.22-2.62,16.66.3,33.52,3.21,50.06,15.83,89.89,30.79,250.51,30.79,250.51h72.41Z"/>
              <path class="cls-2" d="m455.58,826.98c-10.31-49.87-62.78-152.33-62.78-152.33h-183.13s-52.46,102.46-62.78,152.33c-10.31,49.87-7.25,93.83,19.68,109.12,26.93,15.29,134.67,17.2,134.67,17.2,0,0,107.74-1.91,134.67-17.2,26.93-15.29,29.99-59.24,19.68-109.12Z"/>
            </g>
            <path class="cls-7" d="m423.72,723.73c-9.43-52.69-9.42-103.25-9.42-103.25,0,0,21.32-107.22,18.14-135.21,0,0,14.34-113.53,10.35-118.1-8.46-9.68-79.6-35.81-94.77-35.81h-96.12c-15.16,0-86.31,26.13-94.77,35.81-3.99,4.57,6.42,114.87,6.42,114.87-3.17,27.99,22.07,138.45,22.07,138.45,0,0,.02,50.36-9.36,102.94-5.8,32.48,253.25,32.7,247.46.32Z"/>
            <g>
              <path class="cls-6" d="m297.76,422.21c-5.82-5.5-17.97-14.36-29.99-27.16-29.98-31.91-32.31-42.03-32.31-44.37,0-14.77,29.94-16.81,62.3-16.81s62.3,2.04,62.3,16.81c0,2.34-2.33,12.47-32.31,44.37-12.02,12.8-24.17,21.66-29.99,27.16Z"/>
              <g>
                <polygon class="cls-6" points="347.7 367.16 247.82 367.16 263.3 239.26 332.21 239.26 347.7 367.16"/>
                <path class="cls-13" d="m263.3,239.26l-9.23,76.2c28.85,14.18,60.77,5.25,85.3-17.05l-7.16-59.15h-68.91Z"/>
              </g>
            </g>
            <polygon class="cls-5" points="313.21 448.48 327.56 417.81 314.01 393.92 299.05 395.08 284.08 393.92 270.53 417.81 284.88 448.48 254.9 715.68 301.24 776.86 343.2 715.68 313.21 448.48"/>
            <g>
              <path class="cls-14" d="m299.05,394.97s17.3-9.79,25.66-20.01c8.95-10.93,19.83-53.88,19.83-53.88,0,0,16.85,1.95,18.3,16.5,1.57,15.75-13.41,109.71-13.41,109.71l-20.61-33.78-29.77-18.54Z"/>
              <path class="cls-14" d="m299.05,394.97s-17.3-9.79-25.66-20.01c-8.95-10.93-21.16-51.7-21.16-51.7,0,0-15.52-.23-16.97,14.33-1.57,15.75,13.41,109.71,13.41,109.71l20.91-34.09,29.47-18.23Z"/>
            </g>
            <path class="cls-10" d="m194.63,873.68c-48.53-5.16-61.77-12.59-67.51-17.73-4.46-4-3.92-491.83-.37-495.37,7.49-7.44,114.83-44.31,127.33-44.31l-.81,9.58c-8.12,13.69-27.91,49.38-17.37,121.45,11.91,81.37,60.82,226.13,60.82,226.13,0,0,48.93-144.73,61.56-226.14,11.69-75.38-7.81-108.4-15.5-120.73l-1.01-9.05c12.5,0,123.91,35.64,131.4,43.09,3.66,3.64,4.16,491.66-.29,495.64-5.68,5.1-18.78,12.46-66.65,17.53-13.89,1.47-54.66,2.24-98.23,2.29-2.48,0-4.29-52.17-6.77-52.17-3.12,0-2.08,52.18-5.19,52.17-41.78-.13-87.86-.93-101.42-2.37Z"/>
            <path class="cls-10" d="m120.95,362.74c19.25-12.11,90.67-13.69,52.39,110.85-31.76,103.33-32.81,168.96-46.92,200.86-14.5,32.77-89.53,53.22-98.35,6.87-8.82-46.35,56.42-295.64,92.88-318.58Z"/>
            <path class="cls-10" d="m479.54,362.74c-19.25-12.11-90.67-13.69-52.39,110.85,31.76,103.33,32.81,168.96,46.92,200.86,14.5,32.77,89.53,53.22,98.35,6.87,8.82-46.35-56.42-295.64-92.88-318.58Z"/>
            <g>
              <path class="cls-15" d="m461.09,482.96c-22,68,3.95,134.6-8.05,206.6-8,43-28.03,71.48-51.03,109.48-12.74,21.73-36.2,76.45-36.2,76.45,18.53-.38,33.16-.96,40.43-1.73,47.87-5.08,60.97-12.44,66.65-17.53,3.2-2.87,3.84-255.75,2.59-399.14-5.93,8.17-11.14,16.59-14.39,25.88Z"/>
              <path class="cls-15" d="m147.09,478.96c-1.97-10.6-12-21.86-22.5-31.19-1.33,141.38-.75,405.24,2.53,408.18,5.74,5.14,18.98,12.58,67.51,17.73,6.39.68,20.03,1.22,37.03,1.61-20.87-40.09-67.13-139.47-75.43-184.8-16-91,7.66-121.11-9.13-211.53Z"/>
              <g>
                <path class="cls-2" d="m301.24,823.88s-.83-150.46-4.51-150.46,4.51,150.46,4.51,150.46Z"/>
                <path class="cls-2" d="m350.48,760.75l83.43-3.32s4.91,26.74-6.7,26.74h-67.35c-12.39,0-9.37-23.42-9.37-23.42Z"/>
                <path class="cls-2" d="m259.33,760.75l-83.43-3.32s-4.91,26.74,6.7,26.74h67.35c12.39,0,9.37-23.42,9.37-23.42Z"/>
              </g>
              <path class="cls-9" d="m296.73,673.43l111.7-180.51-13.78-7.74,32.5-11.58s-39.7-152.26-85.87-159.47l1.64,14.86s21.01,78.3,13.54,112.65c-5.47,25.17-59.73,231.8-59.73,231.8Z"/>
              <path class="cls-9" d="m296.73,673.43l-109.38-182.43,13.78-7.74-32.5-11.58s39.7-152.26,85.87-159.47l-1.22,13.65s-21.42,79.51-13.95,113.86c5.47,25.17,57.41,233.72,57.41,233.72Z"/>
            </g>
            <g>
              <path class="cls-6" d="m205.62,842.67l23.68,42.69s-24,15.05-68.3,15.05l-7.93-13.68s4.96-28.25,52.56-44.05Z"/>
              <path class="cls-10" d="m35.18,635.34c-12.79,48.1-6.26,57.6,3.58,81.67,9.84,24.06,103.99,178.37,103.99,178.37l79.29-44.26s-82.53-143.44-86.85-165.05c-1.13-5.64-7.45-20.58-10.13-39.04-10.04-69.37-70.28-85.39-89.88-11.68Z"/>
            </g>
            <g>
              <path class="cls-6" d="m394.87,842.67l-25.44,42.76s27.1,9.94,70.06,14.97l7.93-13.68s-4.96-28.25-52.56-44.05Z"/>
              <path class="cls-10" d="m565.31,635.34c12.79,48.1,6.26,57.6-3.58,81.67-9.84,24.06-103.99,178.37-103.99,178.37l-80.57-43.23s83.81-144.48,88.14-166.08c1.13-5.64,5.19-20.58,7.86-39.04,10.04-69.37,72.54-85.39,92.14-11.68Z"/>
            </g>
            <g>
              <path class="cls-6" d="m254.38,55.49c-12.52,4.2-37.66,21.32-41.56,38.84-3.9,17.52-2.54,35.87-2.85,53.91-.44,26.07,3.78,81.18,4.56,95.33.78,14.15,40.71,46.39,49.8,56.54,5.87,6.56,62.66,6.55,68.53,0,9.09-10.15,49.01-42.39,49.8-56.54.78-14.15,5-69.26,4.56-95.33-.31-18.05,1.05-36.4-2.85-53.91-3.9-17.52-29.04-34.63-41.56-38.84h-88.43Z"/>
              <g>
                <path class="cls-12" d="m299.86,212.87c.63-.27,2.15-1,2.29-1.86.14-.86-3.32-1.05-5.02-1.5-1.7-.45-3.44-1.48-3.67-3.28-.29-2.24,1.84-4.36,2.17-6.66.02-.16.04-.31.04-.47-.96-1.91-3.02-1.33-4.19-.09-.77.82-1.22,1.88-1.57,2.93-.77,2.29-1.19,4.72-.75,6.96.44,2.24,1.86,4.25,3.97,4.94,2.11.69,4.48,0,6.73-.97Z"/>
                <g>
                  <path class="cls-13" d="m334.48,161.55c6.05-3.09,13.41-.59,17.21,5.75.54.9,1.5,1.33,2.36.73.75-.52,1.16-1.89.62-2.8-2.29-3.83-5.51-6.72-9.3-8.15-4.17-1.58-8.65-1.11-12.63.93-.85.44-1.05,1.93-.62,2.8.52,1.05,1.5,1.17,2.36.73h0Z"/>
                  <path class="cls-13" d="m262.76,161.73c-6.01-3.18-13.4-.78-17.29,5.51-.55.89-1.52,1.3-2.37.7-.74-.53-1.13-1.91-.58-2.81,2.35-3.8,5.61-6.64,9.41-8.02,4.19-1.52,8.66-.99,12.61,1.1.85.45,1.02,1.94.58,2.81-.53,1.04-1.52,1.15-2.37.7h0Z"/>
                  <path class="cls-13" d="m352.13,181c-.22,6.91-5.27,12.09-10.85,11.89-5.58-.2-9.59-5.7-9.36-12.61s4.93-12.36,10.51-12.16c5.58.2,9.92,5.96,9.7,12.88Z"/>
                  <path class="cls-13" d="m245.53,179.78c-.22,6.91,3.58,12.91,9.16,13.11,5.58.2,10.83-5.48,11.05-12.39s-4.12-12.68-9.7-12.88c-5.58-.2-10.29,5.25-10.51,12.16Z"/>
                </g>
                <path class="cls-3" d="m332.49,217.97c-28.79,6.87-56.51,4.42-72.37,2.01,2.74,14.59,18.19,27.01,35.12,26.75,22.18-.34,32.96-10.03,37.25-28.76Z"/>
              </g>
              <g>
                <path class="cls-6" d="m219.19,242.04c-8.96-5.52-17.99-11.09-25.55-17.95s-13.63-15.17-15.38-24.16c-1.76-8.99-2.1-20.11,9.51-24.14,9.74-3.39,30.17,17.87,30.17,17.87l1.25,48.38Z"/>
                <path class="cls-6" d="m380.45,242.04c8.79-5.79,17.65-11.64,24.99-18.72,7.34-7.08,13.15-15.58,14.63-24.62,1.48-9.04,1.48-20.16-10.24-23.84-9.84-3.09-29.61,18.79-29.61,18.79l.23,48.4Z"/>
              </g>
              <path class="cls-1" d="m192.11,95.93c-2.52,1.3-12.17,15.23-12.17,15.23,0,0,12.17-87.95,80.98-102.73,21.39-4.59,43.53,1.57,64.86,6.51,9.09,2.11,18.39,4.46,27.57,2.94,9.18-1.52,18.39-7.91,20.91-17.89-1.06,11.92-5.24,23.46-11.82,32.9,4.75-1.03,9.27-3.4,12.98-6.88-1.57,8.09-4.91,15.74-9.6,22.12,12.33,4.7,25.48,17.7,29.63,31.92,5.17,17.71-2.99,91.81-7.37,112.83-3.71-.76-12.98-12.57-12.98-25.12,0-17.05,1.51-38.22.38-55.23-.55-8.26-1.24-16.98-5.54-23.73-1.35,6.36-7.77,16.43-14.1,19.64.61-3.81,6.33-13.2,2.69-21.3-6.72-.31-16.09,2.38-21.99,6.24-7.83,5.13-14.49,12.2-21.97,17.94-23.96,18.37-62.88,28.51-89.31,15.02,0-23.44-6.86-32.88-7.93-22.95-1.55,14.39.17,28.96-.19,43.45-.39,16.11,5.55,33.87-5.93,44.32-4.35-15.98-19.27-81.11-19.09-95.24Z"/>
            </g>
          </g>
        </g>
      </g>
    </g>
  </g>
</svg>